<svg width="200" height="200" viewBox="0 0 200 200" fill="none" xmlns="http://www.w3.org/2000/svg">
<path d="M145.4 143C127.8 143 114 128.4 101.2 112.4C88 128.6 73.8 143 54.6 143C28.4 143 10 125.4 10 100C10 74.6 28.4 57 54.6 57C73.4 57 87.8 72.2 101 88.8C113.8 72.8 127.2 57.6 145 57H145.2C170 57 190 76.2 190 100C190 124.6 166.4 143 145.4 143ZM110.4 100.6C121.8 114.8 133.4 128.4 145.4 128.4C162.2 128.4 175.4 113.2 175.4 100C175.4 84.6 161.8 71.8 145.6 71.6C133.2 72.2 122.2 85.6 110.4 100.6V100.6ZM54.6 71.6C36.4 71.6 24.6 82.8 24.6 100C24.6 117 36.6 128.4 54.6 128.4C68.2 128.4 80.2 115.2 91.8 100.6C80 85.8 67.8 71.6 54.6 71.6V71.6Z" fill="white"/>
</svg>
