<svg width="512" height="511" viewBox="0 0 512 511" fill="none" xmlns="http://www.w3.org/2000/svg">
<g clip-path="url(#clip0)">
<path d="M420.758 305.98C401.715 290.406 380.664 277.699 358.34 268.117C360.07 256.246 360.953 244.184 360.953 231.996C360.953 154.234 326.117 81.707 265.379 33.0195L256 25.5L246.621 33.0195C185.883 81.707 151.047 154.234 151.047 231.996C151.047 244.18 151.934 256.238 153.68 268.109C131.348 277.691 110.289 290.402 91.2422 305.98C8.57422 373.59 1.95703 460.371 0 465.676C8.43359 468.207 44.9258 486.883 101.715 486.883C159.57 486.883 213.379 467.555 256.316 435.883C299.602 467.664 353.609 486.883 411.285 486.883C466.707 486.883 503.793 468.152 512 465.676C510.066 460.441 503.438 373.605 420.758 305.98V305.98ZM256 64.3516C303.793 107.062 330.965 167.488 330.965 231.996C330.965 240.684 330.461 249.254 329.48 257.688C305.723 250.648 280.969 246.988 256 246.988C231.059 246.988 206.328 250.641 182.598 257.664C181.566 249.227 181.031 240.656 181.031 231.996C181.031 167.488 208.207 107.062 256 64.3516V64.3516ZM101.715 456.895C78.625 456.895 56.5664 453.465 34.6523 446.441C51.5391 380.801 99.1953 326.703 160.098 298.379C172.684 343.523 197.895 384.016 232.789 416.422C195.617 441.922 150.414 456.895 101.715 456.895ZM257 397.305C224.289 368.062 199.934 329.965 188.418 287.395C209.98 280.625 232.719 276.977 256 276.977C279.391 276.977 302.25 280.664 323.906 287.496C312.789 330.297 289.121 368.238 257 397.305ZM411.285 456.895C363.148 456.895 317.883 441.57 280.445 415.754C315.031 383.238 339.641 342.902 351.965 298.406C412.844 326.738 460.477 380.828 477.352 446.461C455.438 453.555 434.148 456.895 411.285 456.895V456.895Z" fill="white"/>
</g>
<defs>
<clipPath id="clip0">
<rect width="512" height="511" fill="white"/>
</clipPath>
</defs>
</svg>
